<?xml version="1.0" encoding="UTF-8" standalone="no"?> <svg height="598pt" viewBox="-18 -44 598.6777 598" width="598pt" xmlns="http://www.w3.org/2000/svg"><path d="m200.824219 258.464844c9.683593 2.09375 18.644531 1.824218 26.644531-.824219 19.011719-6.285156 29.445312-24.324219 26.585938-45.933594-3.710938-28.429687-30.847657-58.492187-83.121094-61.550781-.230469-.015625-.445313-.015625-.679688-.019531-3.363281-.066407-6.648437 1.023437-9.300781 3.089843-.195313.144532-.382813.292969-.566406.445313-39.984375 33.96875-43.863281 74.164063-29.972657 98.9375.011719.023437.023438.046875.039063.074219 8.3125 14.570312 21.683594 22.710937 36.082031 22.710937 4.292969-.011719 8.554688-.710937 12.625-2.074219 8.382813-3.003906 15.847656-8.125 21.664063-14.855468zm-16.300781-15.480469c-3.96875 4.515625-8.257813 7.628906-12.40625 9-8.523438 2.816406-16.785157-1.074219-22.125-10.398437-9.117188-16.308594-5.480469-43.648438 22.648437-68.789063 37.460937 3.152344 56.683594 23.058594 59.136719 41.84375 1.421875 10.742187-2.824219 18.847656-11.359375 21.664063-4.28125 1.414062-9.46875 1.4375-15.417969.070312-7.519531-1.738281-15.390625.808594-20.476562 6.613281zm0 0"/><path d="m215.445312 290.734375 22.769532 2.324219c6.132812.5625 11.578125-3.917969 12.203125-10.046875.621093-6.125-3.800781-11.613281-9.921875-12.300781l-23.339844-2.382813c-6.09375-.625-12.164062 1.421875-16.636719 5.605469l-16.632812 15.546875c-2.953125 2.734375-4.222657 6.839843-3.316407 10.765625.902344 3.925781 3.835938 7.066406 7.695313 8.230468 3.851563 1.167969 8.035156.179688 10.964844-2.585937zm0 0"/><path d="m546.566406 157.976562-.15625-.058593-108.316406-36.480469v-51.058594c-.011719-12.167968-9.875-22.03125-22.039062-22.042968h-136.148438l-11.054688-33.445313c-4.125-12.425781-17.523437-19.167969-29.957031-15.078125l-222.621093 73.601562c-12.429688 4.109376-19.179688 17.519532-15.070313 29.953126l108.046875 326.828124c1.964844 5.976563 6.222656 10.929688 11.847656 13.757813 5.621094 2.828125 12.136719 3.300781 18.105469 1.3125l51.398437-16.992187h10.269532l222.414062 78.59375c11.480469 4.058593 24.074219-1.960938 28.125-13.441407l108.59375-307.332031c4.039063-11.472656-1.972656-24.050781-13.4375-28.117188zm-130.9375-87.175781v325.105469h-127.097656l73.289062-24.230469c12.4375-4.109375 19.183594-17.523437 15.074219-29.953125l-89.558593-270.921875zm-283.476562 353.140625c-.652344.21875-1.355469-.136718-1.574219-.792968l-108.046875-326.832032c-.214844-.652344.140625-1.359375.792969-1.574218l222.621093-73.59375c.125-.042969.261719-.066407.394532-.066407.535156.007813 1.007812.347657 1.179687.855469l108.050781 326.832031c.101563.3125.078126.65625-.070312.953125-.152344.296875-.410156.519532-.726562.625l-137.8125 45.554688h-1.96875v.652344zm298.214844 61.605469-190.101563-67.175781h175.789063c12.167968-.011719 22.027343-9.871094 22.039062-22.039063v-251.191406l100.585938 33.882813zm0 0"/></svg>